<svg width="1280" height="273" viewBox="0 0 1280 273" fill="none" xmlns="http://www.w3.org/2000/svg">
<g clip-path="url(#clip0_438_22)">
<rect width="1280" height="273" fill="white"/>
<rect width="1280" height="272" transform="translate(0 1)" fill="#FEE4D9"/>
<g clip-path="url(#clip1_438_22)" filter="url(#filter0_f_438_22)">
<rect width="1280" height="272" transform="translate(0 1)" fill="#FFF2E7"/>
<path d="M255 -49L495.755 281.75H14.2449L255 -49Z" fill="#78C3C9"/>
<rect x="340" y="-5" width="555" height="247" fill="#FCE7AE"/>
<rect x="640" y="137" width="640" height="136" fill="#F9BEB0"/>
<ellipse cx="92.5" cy="104" rx="142.5" ry="143" fill="#C09BBC"/>
<path d="M1066.99 230.152L815.907 -13.2125L1321.65 -9.47035L1066.99 230.152Z" fill="#E8A8B8"/>
</g>
<path d="M219 90L221.244 217.835L262.88 96.95L225.511 219.221L302.466 117.12L229.141 221.859L333.88 148.534L231.779 225.489L354.05 188.12L233.165 229.756L361 232L233.165 234.244L354.05 275.88L231.779 238.511L333.88 315.466L229.141 242.141L302.466 346.88L225.511 244.779L262.88 367.05L221.244 246.165L219 374L216.756 246.165L175.12 367.05L212.489 244.779L135.534 346.88L208.859 242.141L104.12 315.466L206.221 238.511L83.95 275.88L204.835 234.244L77 232L204.835 229.756L83.95 188.12L206.221 225.489L104.12 148.534L208.859 221.859L135.534 117.12L212.489 219.221L175.12 96.95L216.756 217.835L219 90Z" fill="#DACCC1" fill-opacity="0.3"/>
<path d="M1022 6L1024.24 133.835L1065.88 12.95L1028.51 135.221L1105.47 33.1196L1032.14 137.859L1136.88 64.5345L1034.78 141.489L1157.05 104.12L1036.17 145.756L1164 148L1036.17 150.244L1157.05 191.88L1034.78 154.511L1136.88 231.466L1032.14 158.141L1105.47 262.88L1028.51 160.779L1065.88 283.05L1024.24 162.165L1022 290L1019.76 162.165L978.12 283.05L1015.49 160.779L938.534 262.88L1011.86 158.141L907.12 231.466L1009.22 154.511L886.95 191.88L1007.83 150.244L880 148L1007.83 145.756L886.95 104.12L1009.22 141.489L907.12 64.5345L1011.86 137.859L938.534 33.1196L1015.49 135.221L978.12 12.95L1019.76 133.835L1022 6Z" fill="#DACCC1" fill-opacity="0.3"/>
<path d="M588 -141L590.244 -13.1654L631.88 -134.05L594.511 -11.7788L671.466 -113.88L598.141 -9.14133L702.88 -82.4655L600.779 -5.51114L723.05 -42.8804L602.165 -1.24358L730 1L602.165 3.24358L723.05 44.8804L600.779 7.51114L702.88 84.4655L598.141 11.1413L671.466 115.88L594.511 13.7788L631.88 136.05L590.244 15.1654L588 143L585.756 15.1654L544.12 136.05L581.489 13.7788L504.534 115.88L577.859 11.1413L473.12 84.4655L575.221 7.51114L452.95 44.8804L573.835 3.24358L446 1L573.835 -1.24358L452.95 -42.8804L575.221 -5.51114L473.12 -82.4655L577.859 -9.14133L504.534 -113.88L581.489 -11.7788L544.12 -134.05L585.756 -13.1654L588 -141Z" fill="#DACCC1" fill-opacity="0.3"/>
<path d="M456.48 182.004H469.8V184.308H456.48V182.004ZM456.768 195H454.104V169.8H471.384V172.104H456.768V195ZM475.994 195V176.1H478.442V181.248L478.19 180.348C478.718 178.908 479.606 177.816 480.854 177.072C482.102 176.304 483.65 175.92 485.498 175.92V178.404C485.402 178.404 485.306 178.404 485.21 178.404C485.114 178.38 485.018 178.368 484.922 178.368C482.93 178.368 481.37 178.98 480.242 180.204C479.114 181.404 478.55 183.12 478.55 185.352V195H475.994ZM497.69 195.18C495.866 195.18 494.222 194.772 492.758 193.956C491.318 193.116 490.178 191.976 489.338 190.536C488.498 189.072 488.078 187.404 488.078 185.532C488.078 183.636 488.498 181.968 489.338 180.528C490.178 179.088 491.318 177.96 492.758 177.144C494.198 176.328 495.842 175.92 497.69 175.92C499.562 175.92 501.218 176.328 502.658 177.144C504.122 177.96 505.262 179.088 506.078 180.528C506.918 181.968 507.338 183.636 507.338 185.532C507.338 187.404 506.918 189.072 506.078 190.536C505.262 191.976 504.122 193.116 502.658 193.956C501.194 194.772 499.538 195.18 497.69 195.18ZM497.69 192.912C499.058 192.912 500.27 192.612 501.326 192.012C502.382 191.388 503.21 190.524 503.81 189.42C504.434 188.292 504.746 186.996 504.746 185.532C504.746 184.044 504.434 182.748 503.81 181.644C503.21 180.54 502.382 179.688 501.326 179.088C500.27 178.464 499.07 178.152 497.726 178.152C496.382 178.152 495.182 178.464 494.126 179.088C493.07 179.688 492.23 180.54 491.606 181.644C490.982 182.748 490.67 184.044 490.67 185.532C490.67 186.996 490.982 188.292 491.606 189.42C492.23 190.524 493.07 191.388 494.126 192.012C495.182 192.612 496.37 192.912 497.69 192.912ZM522.204 175.92C523.74 175.92 525.084 176.22 526.236 176.82C527.412 177.396 528.324 178.284 528.972 179.484C529.644 180.684 529.98 182.196 529.98 184.02V195H527.424V184.272C527.424 182.28 526.92 180.78 525.912 179.772C524.928 178.74 523.536 178.224 521.736 178.224C520.392 178.224 519.216 178.5 518.208 179.052C517.224 179.58 516.456 180.36 515.904 181.392C515.376 182.4 515.112 183.624 515.112 185.064V195H512.556V176.1H515.004V181.284L514.608 180.312C515.208 178.944 516.168 177.876 517.488 177.108C518.808 176.316 520.38 175.92 522.204 175.92ZM542.86 195.18C541.084 195.18 539.716 194.7 538.756 193.74C537.796 192.78 537.316 191.424 537.316 189.672V171.924H539.872V189.528C539.872 190.632 540.148 191.484 540.7 192.084C541.276 192.684 542.092 192.984 543.148 192.984C544.276 192.984 545.212 192.66 545.956 192.012L546.856 193.848C546.352 194.304 545.74 194.64 545.02 194.856C544.324 195.072 543.604 195.18 542.86 195.18ZM533.932 178.224V176.1H545.632V178.224H533.932ZM549.754 186.36V184.128H559.186V186.36H549.754ZM567.82 181.068H581.14V183.336H567.82V181.068ZM568.108 192.696H583.264V195H565.444V169.8H582.724V172.104H568.108V192.696ZM598.634 175.92C600.17 175.92 601.514 176.22 602.666 176.82C603.842 177.396 604.754 178.284 605.402 179.484C606.074 180.684 606.41 182.196 606.41 184.02V195H603.854V184.272C603.854 182.28 603.35 180.78 602.342 179.772C601.358 178.74 599.966 178.224 598.166 178.224C596.822 178.224 595.646 178.5 594.638 179.052C593.654 179.58 592.886 180.36 592.334 181.392C591.806 182.4 591.542 183.624 591.542 185.064V195H588.986V176.1H591.434V181.284L591.038 180.312C591.638 178.944 592.598 177.876 593.918 177.108C595.238 176.316 596.81 175.92 598.634 175.92ZM620.838 195.18C619.038 195.18 617.418 194.772 615.978 193.956C614.562 193.14 613.446 192.012 612.63 190.572C611.814 189.108 611.406 187.428 611.406 185.532C611.406 183.612 611.814 181.932 612.63 180.492C613.446 179.052 614.562 177.936 615.978 177.144C617.418 176.328 619.038 175.92 620.838 175.92C622.494 175.92 623.97 176.292 625.266 177.036C626.586 177.78 627.63 178.872 628.398 180.312C629.19 181.728 629.586 183.468 629.586 185.532C629.586 187.572 629.202 189.312 628.434 190.752C627.666 192.192 626.622 193.296 625.302 194.064C624.006 194.808 622.518 195.18 620.838 195.18ZM621.018 192.912C622.362 192.912 623.562 192.612 624.618 192.012C625.698 191.388 626.538 190.524 627.138 189.42C627.762 188.292 628.074 186.996 628.074 185.532C628.074 184.044 627.762 182.748 627.138 181.644C626.538 180.54 625.698 179.688 624.618 179.088C623.562 178.464 622.362 178.152 621.018 178.152C619.698 178.152 618.51 178.464 617.454 179.088C616.398 179.688 615.558 180.54 614.934 181.644C614.31 182.748 613.998 184.044 613.998 185.532C613.998 186.996 614.31 188.292 614.934 189.42C615.558 190.524 616.398 191.388 617.454 192.012C618.51 192.612 619.698 192.912 621.018 192.912ZM628.146 195V189.312L628.398 185.496L628.038 181.68V168.288H630.594V195H628.146ZM647.674 195V169.8H657.934C660.622 169.8 662.974 170.34 664.99 171.42C667.03 172.476 668.614 173.952 669.742 175.848C670.87 177.744 671.434 179.928 671.434 182.4C671.434 184.872 670.87 187.056 669.742 188.952C668.614 190.848 667.03 192.336 664.99 193.416C662.974 194.472 660.622 195 657.934 195H647.674ZM650.338 192.696H657.79C660.022 192.696 661.954 192.264 663.586 191.4C665.242 190.512 666.526 189.3 667.438 187.764C668.35 186.204 668.806 184.416 668.806 182.4C668.806 180.36 668.35 178.572 667.438 177.036C666.526 175.5 665.242 174.3 663.586 173.436C661.954 172.548 660.022 172.104 657.79 172.104H650.338V192.696ZM684.905 195.18C682.937 195.18 681.209 194.772 679.721 193.956C678.233 193.116 677.069 191.976 676.229 190.536C675.389 189.072 674.969 187.404 674.969 185.532C674.969 183.66 675.365 182.004 676.157 180.564C676.973 179.124 678.077 177.996 679.469 177.18C680.885 176.34 682.469 175.92 684.221 175.92C685.997 175.92 687.569 176.328 688.937 177.144C690.329 177.936 691.421 179.064 692.213 180.528C693.005 181.968 693.401 183.636 693.401 185.532C693.401 185.652 693.389 185.784 693.365 185.928C693.365 186.048 693.365 186.18 693.365 186.324H676.913V184.416H691.997L690.989 185.172C690.989 183.804 690.689 182.592 690.089 181.536C689.513 180.456 688.721 179.616 687.713 179.016C686.705 178.416 685.541 178.116 684.221 178.116C682.925 178.116 681.761 178.416 680.729 179.016C679.697 179.616 678.893 180.456 678.317 181.536C677.741 182.616 677.453 183.852 677.453 185.244V185.64C677.453 187.08 677.765 188.352 678.389 189.456C679.037 190.536 679.925 191.388 681.053 192.012C682.205 192.612 683.513 192.912 684.977 192.912C686.129 192.912 687.197 192.708 688.181 192.3C689.189 191.892 690.053 191.268 690.773 190.428L692.213 192.084C691.373 193.092 690.317 193.86 689.045 194.388C687.797 194.916 686.417 195.18 684.905 195.18ZM703.112 195L694.724 176.1H697.388L705.092 193.632H703.832L711.644 176.1H714.164L705.74 195H703.112ZM725.264 195.18C723.296 195.18 721.568 194.772 720.08 193.956C718.592 193.116 717.428 191.976 716.588 190.536C715.748 189.072 715.328 187.404 715.328 185.532C715.328 183.66 715.724 182.004 716.516 180.564C717.332 179.124 718.436 177.996 719.828 177.18C721.244 176.34 722.828 175.92 724.58 175.92C726.356 175.92 727.928 176.328 729.296 177.144C730.688 177.936 731.78 179.064 732.572 180.528C733.364 181.968 733.76 183.636 733.76 185.532C733.76 185.652 733.748 185.784 733.724 185.928C733.724 186.048 733.724 186.18 733.724 186.324H717.272V184.416H732.356L731.348 185.172C731.348 183.804 731.048 182.592 730.448 181.536C729.872 180.456 729.08 179.616 728.072 179.016C727.064 178.416 725.9 178.116 724.58 178.116C723.284 178.116 722.12 178.416 721.088 179.016C720.056 179.616 719.252 180.456 718.676 181.536C718.1 182.616 717.812 183.852 717.812 185.244V185.64C717.812 187.08 718.124 188.352 718.748 189.456C719.396 190.536 720.284 191.388 721.412 192.012C722.564 192.612 723.872 192.912 725.336 192.912C726.488 192.912 727.556 192.708 728.54 192.3C729.548 191.892 730.412 191.268 731.132 190.428L732.572 192.084C731.732 193.092 730.676 193.86 729.404 194.388C728.156 194.916 726.776 195.18 725.264 195.18ZM738.962 195V168.288H741.518V195H738.962ZM756.334 195.18C754.51 195.18 752.866 194.772 751.402 193.956C749.962 193.116 748.822 191.976 747.982 190.536C747.142 189.072 746.722 187.404 746.722 185.532C746.722 183.636 747.142 181.968 747.982 180.528C748.822 179.088 749.962 177.96 751.402 177.144C752.842 176.328 754.486 175.92 756.334 175.92C758.206 175.92 759.862 176.328 761.302 177.144C762.766 177.96 763.906 179.088 764.722 180.528C765.562 181.968 765.982 183.636 765.982 185.532C765.982 187.404 765.562 189.072 764.722 190.536C763.906 191.976 762.766 193.116 761.302 193.956C759.838 194.772 758.182 195.18 756.334 195.18ZM756.334 192.912C757.702 192.912 758.914 192.612 759.97 192.012C761.026 191.388 761.854 190.524 762.454 189.42C763.078 188.292 763.39 186.996 763.39 185.532C763.39 184.044 763.078 182.748 762.454 181.644C761.854 180.54 761.026 179.688 759.97 179.088C758.914 178.464 757.714 178.152 756.37 178.152C755.026 178.152 753.826 178.464 752.77 179.088C751.714 179.688 750.874 180.54 750.25 181.644C749.626 182.748 749.314 184.044 749.314 185.532C749.314 186.996 749.626 188.292 750.25 189.42C750.874 190.524 751.714 191.388 752.77 192.012C753.826 192.612 755.014 192.912 756.334 192.912ZM780.957 195.18C779.325 195.18 777.849 194.808 776.529 194.064C775.209 193.296 774.153 192.204 773.361 190.788C772.593 189.348 772.209 187.596 772.209 185.532C772.209 183.468 772.593 181.728 773.361 180.312C774.129 178.872 775.173 177.78 776.493 177.036C777.813 176.292 779.301 175.92 780.957 175.92C782.757 175.92 784.365 176.328 785.781 177.144C787.221 177.936 788.349 179.064 789.165 180.528C789.981 181.968 790.389 183.636 790.389 185.532C790.389 187.452 789.981 189.132 789.165 190.572C788.349 192.012 787.221 193.14 785.781 193.956C784.365 194.772 782.757 195.18 780.957 195.18ZM771.201 201.984V176.1H773.649V181.788L773.397 185.568L773.757 189.384V201.984H771.201ZM780.777 192.912C782.121 192.912 783.321 192.612 784.377 192.012C785.433 191.388 786.273 190.524 786.897 189.42C787.521 188.292 787.833 186.996 787.833 185.532C787.833 184.068 787.521 182.784 786.897 181.68C786.273 180.576 785.433 179.712 784.377 179.088C783.321 178.464 782.121 178.152 780.777 178.152C779.433 178.152 778.221 178.464 777.141 179.088C776.085 179.712 775.245 180.576 774.621 181.68C774.021 182.784 773.721 184.068 773.721 185.532C773.721 186.996 774.021 188.292 774.621 189.42C775.245 190.524 776.085 191.388 777.141 192.012C778.221 192.612 779.433 192.912 780.777 192.912ZM803.627 195.18C801.659 195.18 799.931 194.772 798.443 193.956C796.955 193.116 795.791 191.976 794.951 190.536C794.111 189.072 793.691 187.404 793.691 185.532C793.691 183.66 794.087 182.004 794.879 180.564C795.695 179.124 796.799 177.996 798.191 177.18C799.607 176.34 801.191 175.92 802.943 175.92C804.719 175.92 806.291 176.328 807.659 177.144C809.051 177.936 810.143 179.064 810.935 180.528C811.727 181.968 812.123 183.636 812.123 185.532C812.123 185.652 812.111 185.784 812.087 185.928C812.087 186.048 812.087 186.18 812.087 186.324H795.635V184.416H810.719L809.711 185.172C809.711 183.804 809.411 182.592 808.811 181.536C808.235 180.456 807.443 179.616 806.435 179.016C805.427 178.416 804.263 178.116 802.943 178.116C801.647 178.116 800.483 178.416 799.451 179.016C798.419 179.616 797.615 180.456 797.039 181.536C796.463 182.616 796.175 183.852 796.175 185.244V185.64C796.175 187.08 796.487 188.352 797.111 189.456C797.759 190.536 798.647 191.388 799.775 192.012C800.927 192.612 802.235 192.912 803.699 192.912C804.851 192.912 805.919 192.708 806.903 192.3C807.911 191.892 808.775 191.268 809.495 190.428L810.935 192.084C810.095 193.092 809.039 193.86 807.767 194.388C806.519 194.916 805.139 195.18 803.627 195.18ZM817.326 195V176.1H819.774V181.248L819.522 180.348C820.05 178.908 820.938 177.816 822.186 177.072C823.434 176.304 824.982 175.92 826.83 175.92V178.404C826.734 178.404 826.638 178.404 826.542 178.404C826.446 178.38 826.35 178.368 826.254 178.368C824.262 178.368 822.702 178.98 821.574 180.204C820.446 181.404 819.882 183.12 819.882 185.352V195H817.326Z" fill="#47494C"/>
<path d="M187.5 83L190.1 106.296L209 109.5L190.1 112.704L187.5 136L184.9 112.704L166 109.5L184.9 106.296L187.5 83Z" fill="#0A0E15"/>
<path d="M253 134V133.36H253.256C254.792 133.36 256.029 132.891 256.968 131.952C257.907 131.013 258.376 129.776 258.376 128.24V91.76C258.376 90.224 257.907 88.9867 256.968 88.048C256.029 87.1093 254.792 86.64 253.256 86.64H253V86H273.48V86.64H273.352C271.816 86.64 270.579 87.1093 269.64 88.048C268.701 88.9867 268.232 90.224 268.232 91.76V106.608H289.352V91.76C289.352 90.224 288.883 88.9867 287.944 88.048C287.005 87.1093 285.768 86.64 284.232 86.64H284.04V86H304.52V86.64H304.328C302.792 86.64 301.555 87.1093 300.616 88.048C299.677 88.9867 299.208 90.224 299.208 91.76V128.24C299.208 129.776 299.677 131.013 300.616 131.952C301.555 132.891 302.792 133.36 304.328 133.36H304.52V134H284.04V133.36H284.232C285.768 133.36 287.005 132.891 287.944 131.952C288.883 131.013 289.352 129.776 289.352 128.24V107.504H268.232V128.24C268.232 129.776 268.701 131.013 269.64 131.952C270.579 132.891 271.816 133.36 273.352 133.36H273.48V134H253ZM319.404 134.768C316.46 134.768 313.836 134.043 311.532 132.592C309.27 131.141 307.5 129.136 306.22 126.576C304.94 123.973 304.299 121.008 304.299 117.68C304.299 114.267 305.003 111.28 306.411 108.72C307.82 106.16 309.74 104.176 312.172 102.768C314.646 101.317 317.441 100.592 320.556 100.592C323.158 100.592 325.462 101.104 327.468 102.128C329.516 103.152 331.137 104.603 332.332 106.48C333.569 108.315 334.273 110.448 334.444 112.88L334.507 113.84H313.004V114.16C313.004 118.683 314.006 122.309 316.012 125.04C318.017 127.728 320.705 129.072 324.076 129.072C326.124 129.072 328.065 128.581 329.9 127.6C331.777 126.576 333.292 125.211 334.444 123.504L335.02 123.696C334.294 125.872 333.164 127.792 331.628 129.456C330.092 131.12 328.278 132.421 326.188 133.36C324.097 134.299 321.836 134.768 319.404 134.768ZM313.068 112.88H326.06C326.06 109.509 325.505 106.779 324.396 104.688C323.329 102.597 321.814 101.552 319.852 101.552C317.974 101.552 316.417 102.576 315.18 104.624C313.942 106.672 313.238 109.424 313.068 112.88ZM334.312 134V133.36C335.849 133.36 337.086 132.912 338.025 132.016C339.006 131.077 339.497 129.819 339.497 128.24V91.76C339.497 90.224 339.006 88.9867 338.025 88.048C337.086 87.1093 335.849 86.64 334.312 86.64V86H340.841C343.017 86 344.681 85.7653 345.833 85.296C346.899 84.8267 347.646 84.2507 348.073 83.568H348.713V128.24C348.713 129.819 349.182 131.077 350.121 132.016C351.102 132.912 352.361 133.36 353.897 133.36V134H334.312ZM353.125 134V133.36C354.661 133.36 355.898 132.912 356.837 132.016C357.818 131.077 358.309 129.819 358.309 128.24V91.76C358.309 90.224 357.818 88.9867 356.837 88.048C355.898 87.1093 354.661 86.64 353.125 86.64V86H359.653C361.829 86 363.493 85.7653 364.645 85.296C365.712 84.8267 366.458 84.2507 366.885 83.568H367.525V128.24C367.525 129.819 367.994 131.077 368.933 132.016C369.914 132.912 371.173 133.36 372.709 133.36V134H353.125ZM390.336 134.896C386.837 134.896 383.765 134.192 381.12 132.784C378.517 131.376 376.49 129.392 375.04 126.832C373.589 124.272 372.864 121.243 372.864 117.744C372.864 114.245 373.589 111.216 375.04 108.656C376.49 106.096 378.517 104.112 381.12 102.704C383.765 101.296 386.837 100.592 390.336 100.592C393.834 100.592 396.885 101.296 399.488 102.704C402.09 104.112 404.117 106.096 405.568 108.656C407.018 111.216 407.744 114.245 407.744 117.744C407.744 121.243 407.018 124.272 405.568 126.832C404.117 129.392 402.09 131.376 399.488 132.784C396.885 134.192 393.834 134.896 390.336 134.896ZM390.272 134.064C391.765 134.064 393.045 133.317 394.112 131.824C395.178 130.331 396.01 128.347 396.608 125.872C397.205 123.355 397.504 120.624 397.504 117.68C397.504 114.48 397.184 111.664 396.544 109.232C395.946 106.757 395.093 104.837 393.984 103.472C392.917 102.064 391.701 101.36 390.336 101.36C388.885 101.36 387.605 102.107 386.496 103.6C385.429 105.093 384.597 107.077 384 109.552C383.402 112.027 383.104 114.736 383.104 117.68C383.104 120.923 383.424 123.781 384.064 126.256C384.704 128.731 385.557 130.651 386.624 132.016C387.733 133.381 388.949 134.064 390.272 134.064ZM416.979 116.656C416.979 112.688 416.702 109.339 416.147 106.608C415.635 103.877 415.08 101.531 414.483 99.568C413.886 97.6907 413.31 96.0693 412.755 94.704C412.2 93.296 411.923 91.9093 411.923 90.544C411.923 88.9227 412.414 87.6213 413.395 86.64C414.376 85.616 415.678 85.104 417.299 85.104C418.963 85.104 420.286 85.616 421.267 86.64C422.291 87.6213 422.803 88.9227 422.803 90.544C422.803 91.9093 422.526 93.296 421.971 94.704C421.459 96.0693 420.883 97.6907 420.243 99.568C419.56 101.531 418.942 103.877 418.387 106.608C417.875 109.339 417.619 112.688 417.619 116.656H416.979ZM417.235 134.896C415.742 134.896 414.462 134.363 413.395 133.296C412.328 132.229 411.795 130.949 411.795 129.456C411.795 127.877 412.35 126.576 413.459 125.552C414.568 124.528 415.827 124.016 417.235 124.016C418.643 124.016 419.902 124.528 421.011 125.552C422.12 126.576 422.675 127.877 422.675 129.456C422.675 130.949 422.142 132.229 421.075 133.296C420.008 134.363 418.728 134.896 417.235 134.896ZM438.5 134V133.36H438.564C440.1 133.36 441.337 132.891 442.276 131.952C443.215 131.013 443.684 129.776 443.684 128.24V91.76C443.684 90.224 443.215 88.9867 442.276 88.048C441.337 87.1093 440.1 86.64 438.564 86.64H438.5V86H458.788V86.64H458.724C457.188 86.64 455.951 87.1093 455.012 88.048C454.073 88.9867 453.604 90.224 453.604 91.76V128.24C453.604 129.776 454.073 131.013 455.012 131.952C455.951 132.891 457.188 133.36 458.724 133.36H458.788V134H438.5ZM462.275 99.888L461.891 99.184C462.829 98.5867 463.619 98.0533 464.259 97.584C464.899 97.072 465.389 96.6027 465.731 96.176C466.456 95.3653 466.819 94.5547 466.819 93.744C466.819 92.8907 466.499 92.272 465.859 91.888C465.219 91.4613 464.493 91.0987 463.683 90.8C462.829 90.5013 462.083 90.0533 461.443 89.456C460.845 88.816 460.547 87.92 460.547 86.768C460.547 85.3173 460.995 84.144 461.891 83.248C462.829 82.352 464.045 81.904 465.539 81.904C467.16 81.904 468.44 82.4587 469.379 83.568C470.317 84.6773 470.787 86.256 470.787 88.304C470.787 90.4373 470.168 92.3787 468.931 94.128C467.693 95.8347 465.475 97.7547 462.275 99.888ZM468.759 134V133.36H468.823C470.359 133.36 471.596 132.891 472.535 131.952C473.474 131.013 473.943 129.776 473.943 128.24V107.248C473.943 105.627 473.602 104.368 472.919 103.472C472.279 102.576 470.892 102.128 468.759 102.128V101.488H475.095C476.844 101.488 478.188 101.403 479.127 101.232C480.108 101.061 480.834 100.848 481.303 100.592C481.772 100.293 482.114 99.9947 482.327 99.696H482.967L483.031 108.016C484.14 105.797 485.826 104.005 488.087 102.64C490.348 101.275 492.738 100.592 495.255 100.592C497.687 100.592 499.714 101.275 501.335 102.64C502.956 104.005 504.002 105.84 504.471 108.144C505.666 105.84 507.372 104.005 509.591 102.64C511.852 101.275 514.284 100.592 516.887 100.592C519.746 100.592 522.028 101.531 523.735 103.408C525.484 105.285 526.359 107.76 526.359 110.832V128.24C526.359 129.776 526.828 131.013 527.767 131.952C528.706 132.891 529.943 133.36 531.479 133.36H531.543V134H512.023V133.36H512.087C513.623 133.36 514.86 132.891 515.799 131.952C516.738 131.013 517.207 129.776 517.207 128.24V110.192C517.207 108.059 516.78 106.352 515.927 105.072C515.074 103.792 513.964 103.152 512.599 103.152C511.276 103.152 509.89 103.749 508.439 104.944C506.988 106.096 505.73 107.611 504.663 109.488C504.706 109.573 504.727 109.68 504.727 109.808C504.727 109.936 504.727 110.043 504.727 110.128V128.24C504.727 129.776 505.196 131.013 506.135 131.952C507.074 132.891 508.311 133.36 509.847 133.36H509.911V134H490.391V133.36H490.455C491.991 133.36 493.228 132.891 494.167 131.952C495.106 131.013 495.575 129.776 495.575 128.24V110.192C495.575 108.059 495.148 106.352 494.295 105.072C493.484 103.792 492.396 103.152 491.031 103.152C489.708 103.152 488.322 103.728 486.871 104.88C485.463 105.989 484.226 107.504 483.159 109.424V128.24C483.159 129.776 483.628 131.013 484.567 131.952C485.506 132.891 486.743 133.36 488.279 133.36H488.343V134H468.759ZM570.304 134.896L552.384 93.808L549.376 127.472C549.205 129.179 549.696 130.565 550.848 131.632C552 132.699 553.408 133.275 555.072 133.36V134H542.272V133.36C543.893 133.275 545.259 132.677 546.368 131.568C547.477 130.459 548.117 129.072 548.288 127.408L551.488 92.016C550.677 90.352 549.653 89.0507 548.416 88.112C547.221 87.1307 545.664 86.64 543.744 86.64V86H559.104L574.72 122.16L590.336 86H602.304V86.64C600.939 86.64 599.787 87.0453 598.848 87.856C597.909 88.6667 597.483 89.776 597.568 91.184L600.832 129.072C601.045 130.523 601.728 131.611 602.88 132.336C604.075 133.061 605.248 133.424 606.4 133.424V134H586.56V133.424C587.285 133.424 588.032 133.253 588.8 132.912C589.568 132.571 590.187 132.08 590.656 131.44C591.168 130.8 591.36 130.053 591.232 129.2L588.096 93.872L570.304 134.896ZM615.437 134.896C612.834 134.896 610.743 134.192 609.165 132.784C607.586 131.376 606.797 129.52 606.797 127.216C606.797 126.235 606.967 125.317 607.309 124.464C607.65 123.568 608.29 122.693 609.229 121.84C610.21 120.987 611.554 120.112 613.26 119.216C614.967 118.277 617.229 117.296 620.045 116.272L625.997 114.096V109.296C625.997 106.864 625.613 104.944 624.845 103.536C624.077 102.085 623.01 101.36 621.645 101.36C620.023 101.403 618.637 102.469 617.485 104.56C616.375 106.651 615.629 109.552 615.245 113.264L608.333 109.296C609.058 107.547 610.167 106.011 611.661 104.688C613.154 103.365 614.861 102.341 616.781 101.616C618.743 100.891 620.791 100.528 622.925 100.528C626.551 100.528 629.495 101.552 631.757 103.6C634.061 105.605 635.213 108.357 635.213 111.856V127.28C635.213 129.755 636.045 130.992 637.708 130.992C638.69 130.992 639.65 130.459 640.589 129.392L641.101 129.84C639.991 131.333 638.647 132.549 637.069 133.488C635.49 134.427 633.954 134.896 632.461 134.896C630.839 134.896 629.431 134.341 628.237 133.232C627.085 132.123 626.359 130.651 626.061 128.816C623.97 130.949 622.135 132.507 620.557 133.488C619.021 134.427 617.314 134.896 615.437 134.896ZM620.237 130.928C621.175 130.928 622.071 130.693 622.925 130.224C623.821 129.755 624.823 128.987 625.933 127.92L625.997 114.928L623.437 115.888C621.261 116.699 619.597 117.531 618.445 118.384C617.293 119.195 616.482 120.112 616.013 121.136C615.586 122.16 615.373 123.333 615.373 124.656C615.373 126.491 615.821 128.005 616.717 129.2C617.655 130.352 618.829 130.928 620.237 130.928ZM639.822 134V133.36H639.886C641.422 133.36 642.659 132.891 643.598 131.952C644.536 131.013 645.006 129.776 645.006 128.24V107.248C645.006 105.627 644.664 104.368 643.982 103.472C643.342 102.576 641.955 102.128 639.822 102.128V101.488H646.158C648.419 101.488 650.126 101.275 651.278 100.848C652.43 100.379 653.24 99.7813 653.71 99.056H654.03L654.094 109.552C654.648 108.272 655.352 106.928 656.206 105.52C657.102 104.112 658.211 102.939 659.534 102C660.899 101.019 662.52 100.528 664.398 100.528C665.038 100.528 665.72 100.592 666.446 100.72C667.171 100.848 667.939 101.083 668.75 101.424L666.254 108.912C664.718 108.059 663.374 107.461 662.222 107.12C661.112 106.779 660.131 106.608 659.278 106.608C657.827 106.608 656.739 107.056 656.014 107.952C655.331 108.848 654.734 109.915 654.222 111.152V128.24C654.222 129.776 654.691 131.013 655.63 131.952C656.568 132.891 657.806 133.36 659.342 133.36H659.406V134H639.822ZM668.886 134V133.36H668.95C670.486 133.36 671.723 132.891 672.661 131.952C673.6 131.013 674.07 129.776 674.07 128.24V107.248C674.07 105.627 673.728 104.368 673.046 103.472C672.406 102.576 671.019 102.128 668.886 102.128V101.488H675.414C677.59 101.488 679.254 101.253 680.406 100.784C681.472 100.315 682.219 99.7387 682.646 99.056H683.286V128.24C683.286 129.776 683.755 131.013 684.694 131.952C685.632 132.891 686.87 133.36 688.406 133.36H688.47V134H668.886ZM678.614 95.024C677.078 95.024 675.798 94.5333 674.774 93.552C673.792 92.528 673.302 91.248 673.302 89.712C673.302 88.176 673.792 86.9173 674.774 85.936C675.798 84.912 677.078 84.4 678.614 84.4C680.107 84.4 681.344 84.912 682.326 85.936C683.35 86.96 683.862 88.2187 683.862 89.712C683.862 91.2053 683.35 92.464 682.326 93.488C681.344 94.512 680.107 95.024 678.614 95.024ZM698.062 134.896C695.459 134.896 693.368 134.192 691.79 132.784C690.211 131.376 689.422 129.52 689.422 127.216C689.422 126.235 689.592 125.317 689.934 124.464C690.275 123.568 690.915 122.693 691.854 121.84C692.835 120.987 694.179 120.112 695.885 119.216C697.592 118.277 699.854 117.296 702.67 116.272L708.622 114.096V109.296C708.622 106.864 708.238 104.944 707.47 103.536C706.702 102.085 705.635 101.36 704.27 101.36C702.648 101.403 701.262 102.469 700.11 104.56C699 106.651 698.254 109.552 697.87 113.264L690.958 109.296C691.683 107.547 692.792 106.011 694.286 104.688C695.779 103.365 697.486 102.341 699.406 101.616C701.368 100.891 703.416 100.528 705.55 100.528C709.176 100.528 712.12 101.552 714.382 103.6C716.686 105.605 717.838 108.357 717.838 111.856V127.28C717.838 129.755 718.67 130.992 720.333 130.992C721.315 130.992 722.275 130.459 723.214 129.392L723.726 129.84C722.616 131.333 721.272 132.549 719.694 133.488C718.115 134.427 716.579 134.896 715.086 134.896C713.464 134.896 712.056 134.341 710.862 133.232C709.71 132.123 708.984 130.651 708.686 128.816C706.595 130.949 704.76 132.507 703.182 133.488C701.646 134.427 699.939 134.896 698.062 134.896ZM702.862 130.928C703.8 130.928 704.696 130.693 705.55 130.224C706.446 129.755 707.448 128.987 708.558 127.92L708.622 114.928L706.062 115.888C703.886 116.699 702.222 117.531 701.07 118.384C699.918 119.195 699.107 120.112 698.638 121.136C698.211 122.16 697.998 123.333 697.998 124.656C697.998 126.491 698.446 128.005 699.342 129.2C700.28 130.352 701.454 130.928 702.862 130.928ZM722.447 134V133.36H722.511C724.047 133.36 725.284 132.891 726.223 131.952C727.161 131.013 727.631 129.776 727.631 128.24V107.248C727.631 105.627 727.289 104.368 726.607 103.472C725.967 102.576 724.58 102.128 722.447 102.128V101.488H728.783C730.959 101.488 732.623 101.253 733.775 100.784C734.841 100.315 735.588 99.7387 736.015 99.056H736.655L736.719 108.016C737.828 105.797 739.513 104.005 741.775 102.64C744.036 101.275 746.425 100.592 748.943 100.592C751.801 100.592 754.084 101.531 755.791 103.408C757.54 105.285 758.415 107.76 758.415 110.832V128.24C758.415 129.776 758.884 131.013 759.823 131.952C760.761 132.891 761.999 133.36 763.535 133.36H763.599V134H744.079V133.36H744.143C745.679 133.36 746.916 132.891 747.855 131.952C748.793 131.013 749.263 129.776 749.263 128.24V110.192C749.263 108.059 748.836 106.352 747.983 105.072C747.172 103.792 746.084 103.152 744.719 103.152C743.396 103.152 742.009 103.728 740.559 104.88C739.151 105.989 737.913 107.504 736.847 109.424V128.24C736.847 129.776 737.316 131.013 738.255 131.952C739.193 132.891 740.431 133.36 741.967 133.36H742.031V134H722.447ZM772.437 134.896C769.834 134.896 767.743 134.192 766.165 132.784C764.586 131.376 763.797 129.52 763.797 127.216C763.797 126.235 763.967 125.317 764.309 124.464C764.65 123.568 765.29 122.693 766.229 121.84C767.21 120.987 768.554 120.112 770.26 119.216C771.967 118.277 774.229 117.296 777.045 116.272L782.997 114.096V109.296C782.997 106.864 782.613 104.944 781.845 103.536C781.077 102.085 780.01 101.36 778.645 101.36C777.023 101.403 775.637 102.469 774.485 104.56C773.375 106.651 772.629 109.552 772.245 113.264L765.333 109.296C766.058 107.547 767.167 106.011 768.661 104.688C770.154 103.365 771.861 102.341 773.781 101.616C775.743 100.891 777.791 100.528 779.925 100.528C783.551 100.528 786.495 101.552 788.757 103.6C791.061 105.605 792.213 108.357 792.213 111.856V127.28C792.213 129.755 793.045 130.992 794.708 130.992C795.69 130.992 796.65 130.459 797.589 129.392L798.101 129.84C796.991 131.333 795.647 132.549 794.069 133.488C792.49 134.427 790.954 134.896 789.461 134.896C787.839 134.896 786.431 134.341 785.237 133.232C784.085 132.123 783.359 130.651 783.061 128.816C780.97 130.949 779.135 132.507 777.557 133.488C776.021 134.427 774.314 134.896 772.437 134.896ZM777.237 130.928C778.175 130.928 779.071 130.693 779.925 130.224C780.821 129.755 781.823 128.987 782.933 127.92L782.997 114.928L780.437 115.888C778.261 116.699 776.597 117.531 775.445 118.384C774.293 119.195 773.482 120.112 773.013 121.136C772.586 122.16 772.373 123.333 772.373 124.656C772.373 126.491 772.821 128.005 773.717 129.2C774.655 130.352 775.829 130.928 777.237 130.928ZM821.595 134L821.659 133.36H821.723C823.259 133.36 824.496 132.891 825.435 131.952C826.373 131.013 826.843 129.776 826.843 128.24V86.896H824.987C822.896 86.896 820.848 87.2373 818.843 87.92C816.837 88.56 815.109 89.7547 813.659 91.504C812.208 93.2107 811.227 95.6853 810.715 98.928H810.075L811.867 86H851.739L853.595 98.928H852.955C852.443 95.728 851.44 93.2533 849.947 91.504C848.496 89.7547 846.747 88.56 844.699 87.92C842.693 87.2373 840.603 86.896 838.427 86.896H836.763V128.24C836.763 129.776 837.232 131.013 838.171 131.952C839.109 132.891 840.347 133.36 841.882 133.36L841.947 134H821.595ZM864.624 134.896C862.021 134.896 859.931 134.192 858.352 132.784C856.773 131.376 855.984 129.52 855.984 127.216C855.984 126.235 856.155 125.317 856.496 124.464C856.837 123.568 857.477 122.693 858.416 121.84C859.397 120.987 860.741 120.112 862.448 119.216C864.155 118.277 866.416 117.296 869.232 116.272L875.184 114.096V109.296C875.184 106.864 874.8 104.944 874.032 103.536C873.264 102.085 872.197 101.36 870.832 101.36C869.211 101.403 867.824 102.469 866.672 104.56C865.563 106.651 864.816 109.552 864.432 113.264L857.52 109.296C858.245 107.547 859.355 106.011 860.848 104.688C862.341 103.365 864.048 102.341 865.968 101.616C867.931 100.891 869.979 100.528 872.112 100.528C875.739 100.528 878.683 101.552 880.944 103.6C883.248 105.605 884.4 108.357 884.4 111.856V127.28C884.4 129.755 885.232 130.992 886.896 130.992C887.877 130.992 888.837 130.459 889.776 129.392L890.288 129.84C889.179 131.333 887.835 132.549 886.256 133.488C884.677 134.427 883.141 134.896 881.648 134.896C880.027 134.896 878.619 134.341 877.424 133.232C876.272 132.123 875.547 130.651 875.248 128.816C873.157 130.949 871.323 132.507 869.744 133.488C868.208 134.427 866.501 134.896 864.624 134.896ZM869.424 130.928C870.363 130.928 871.259 130.693 872.112 130.224C873.008 129.755 874.011 128.987 875.12 127.92L875.184 114.928L872.624 115.888C870.448 116.699 868.784 117.531 867.632 118.384C866.48 119.195 865.669 120.112 865.2 121.136C864.773 122.16 864.56 123.333 864.56 124.656C864.56 126.491 865.008 128.005 865.904 129.2C866.843 130.352 868.016 130.928 869.424 130.928ZM889.009 134V133.36H889.073C890.609 133.36 891.846 132.891 892.785 131.952C893.724 131.013 894.193 129.776 894.193 128.24V107.248C894.193 105.627 893.852 104.368 893.169 103.472C892.529 102.576 891.142 102.128 889.009 102.128V101.488H895.345C897.094 101.488 898.438 101.403 899.377 101.232C900.358 101.061 901.084 100.848 901.553 100.592C902.022 100.293 902.364 99.9947 902.577 99.696H903.217L903.281 108.016C904.39 105.797 906.076 104.005 908.337 102.64C910.598 101.275 912.988 100.592 915.505 100.592C917.937 100.592 919.964 101.275 921.585 102.64C923.206 104.005 924.252 105.84 924.721 108.144C925.916 105.84 927.622 104.005 929.841 102.64C932.102 101.275 934.534 100.592 937.137 100.592C939.996 100.592 942.278 101.531 943.985 103.408C945.734 105.285 946.609 107.76 946.609 110.832V128.24C946.609 129.776 947.078 131.013 948.017 131.952C948.956 132.891 950.193 133.36 951.729 133.36H951.793V134H932.273V133.36H932.337C933.873 133.36 935.11 132.891 936.049 131.952C936.988 131.013 937.457 129.776 937.457 128.24V110.192C937.457 108.059 937.03 106.352 936.177 105.072C935.324 103.792 934.214 103.152 932.849 103.152C931.526 103.152 930.14 103.749 928.689 104.944C927.238 106.096 925.98 107.611 924.913 109.488C924.956 109.573 924.977 109.68 924.977 109.808C924.977 109.936 924.977 110.043 924.977 110.128V128.24C924.977 129.776 925.446 131.013 926.385 131.952C927.324 132.891 928.561 133.36 930.097 133.36H930.161V134H910.641V133.36H910.705C912.241 133.36 913.478 132.891 914.417 131.952C915.356 131.013 915.825 129.776 915.825 128.24V110.192C915.825 108.059 915.398 106.352 914.545 105.072C913.734 103.792 912.646 103.152 911.281 103.152C909.958 103.152 908.572 103.728 907.121 104.88C905.713 105.989 904.476 107.504 903.409 109.424V128.24C903.409 129.776 903.878 131.013 904.817 131.952C905.756 132.891 906.993 133.36 908.529 133.36H908.593V134H889.009ZM960.624 134.896C958.021 134.896 955.931 134.192 954.352 132.784C952.773 131.376 951.984 129.52 951.984 127.216C951.984 126.235 952.155 125.317 952.496 124.464C952.837 123.568 953.477 122.693 954.416 121.84C955.397 120.987 956.741 120.112 958.448 119.216C960.155 118.277 962.416 117.296 965.232 116.272L971.184 114.096V109.296C971.184 106.864 970.8 104.944 970.032 103.536C969.264 102.085 968.197 101.36 966.832 101.36C965.211 101.403 963.824 102.469 962.672 104.56C961.563 106.651 960.816 109.552 960.432 113.264L953.52 109.296C954.245 107.547 955.355 106.011 956.848 104.688C958.341 103.365 960.048 102.341 961.968 101.616C963.931 100.891 965.979 100.528 968.112 100.528C971.739 100.528 974.683 101.552 976.944 103.6C979.248 105.605 980.4 108.357 980.4 111.856V127.28C980.4 129.755 981.232 130.992 982.896 130.992C983.877 130.992 984.837 130.459 985.776 129.392L986.288 129.84C985.179 131.333 983.835 132.549 982.256 133.488C980.677 134.427 979.141 134.896 977.648 134.896C976.027 134.896 974.619 134.341 973.424 133.232C972.272 132.123 971.547 130.651 971.248 128.816C969.157 130.949 967.323 132.507 965.744 133.488C964.208 134.427 962.501 134.896 960.624 134.896ZM965.424 130.928C966.363 130.928 967.259 130.693 968.112 130.224C969.008 129.755 970.011 128.987 971.12 127.92L971.184 114.928L968.624 115.888C966.448 116.699 964.784 117.531 963.632 118.384C962.48 119.195 961.669 120.112 961.2 121.136C960.773 122.16 960.56 123.333 960.56 124.656C960.56 126.491 961.008 128.005 961.904 129.2C962.843 130.352 964.016 130.928 965.424 130.928ZM983.768 148.336C982.019 148.336 980.333 147.995 978.712 147.312L981.208 139.824C982.275 140.251 983.427 140.613 984.664 140.912C985.944 141.211 987.224 141.36 988.504 141.36C990.125 141.36 991.64 141.019 993.048 140.336C994.499 139.696 995.587 138.48 996.312 136.688L997.016 134.96L984.344 105.584C983.917 104.56 983.363 103.749 982.68 103.152C981.955 102.512 980.973 102.171 979.736 102.128V101.488H998.232V102.128C997.08 102.256 996.184 102.661 995.544 103.344C994.947 104.027 994.648 104.901 994.648 105.968C994.648 106.907 994.861 107.867 995.288 108.848L1001.75 124.016L1008.22 108.848C1008.64 107.867 1008.86 106.907 1008.86 105.968C1008.86 104.901 1008.54 104.027 1007.9 103.344C1007.3 102.661 1006.4 102.256 1005.21 102.128V101.488H1014.04V102.128C1013.06 102.341 1012.23 102.981 1011.54 104.048C1010.86 105.072 1010.14 106.48 1009.37 108.272L996.312 138.608C994.947 141.765 993.176 144.176 991 145.84C988.824 147.504 986.413 148.336 983.768 148.336ZM1018.67 116.656C1018.67 112.688 1018.39 109.339 1017.83 106.608C1017.32 103.877 1016.77 101.531 1016.17 99.568C1015.57 97.6907 1015 96.0693 1014.44 94.704C1013.89 93.296 1013.61 91.9093 1013.61 90.544C1013.61 88.9227 1014.1 87.6213 1015.08 86.64C1016.06 85.616 1017.37 85.104 1018.99 85.104C1020.65 85.104 1021.97 85.616 1022.95 86.64C1023.98 87.6213 1024.49 88.9227 1024.49 90.544C1024.49 91.9093 1024.21 93.296 1023.66 94.704C1023.15 96.0693 1022.57 97.6907 1021.93 99.568C1021.25 101.531 1020.63 103.877 1020.07 106.608C1019.56 109.339 1019.31 112.688 1019.31 116.656H1018.67ZM1018.92 134.896C1017.43 134.896 1016.15 134.363 1015.08 133.296C1014.02 132.229 1013.48 130.949 1013.48 129.456C1013.48 127.877 1014.04 126.576 1015.15 125.552C1016.26 124.528 1017.51 124.016 1018.92 124.016C1020.33 124.016 1021.59 124.528 1022.7 125.552C1023.81 126.576 1024.36 127.877 1024.36 129.456C1024.36 130.949 1023.83 132.229 1022.76 133.296C1021.7 134.363 1020.42 134.896 1018.92 134.896Z" fill="#0A0E15"/>
<path d="M1092.5 83L1095.1 106.296L1114 109.5L1095.1 112.704L1092.5 136L1089.9 112.704L1071 109.5L1089.9 106.296L1092.5 83Z" fill="#0A0E15"/>
</g>
<defs>
<filter id="filter0_f_438_22" x="-250" y="-249" width="1780" height="772" filterUnits="userSpaceOnUse" color-interpolation-filters="sRGB">
<feFlood flood-opacity="0" result="BackgroundImageFix"/>
<feBlend mode="normal" in="SourceGraphic" in2="BackgroundImageFix" result="shape"/>
<feGaussianBlur stdDeviation="125" result="effect1_foregroundBlur_438_22"/>
</filter>
<clipPath id="clip0_438_22">
<rect width="1280" height="273" fill="white"/>
</clipPath>
<clipPath id="clip1_438_22">
<rect width="1280" height="272" fill="white" transform="translate(0 1)"/>
</clipPath>
</defs>
</svg>
