<svg width="1280" height="263" viewBox="0 0 1280 263" fill="none" xmlns="http://www.w3.org/2000/svg">
<g clip-path="url(#clip0_438_23)">
<rect width="1280" height="274" transform="translate(0 -1)" fill="#0A0E15"/>
<g clip-path="url(#clip1_438_23)" filter="url(#filter0_f_438_23)">
<rect width="1280" height="270" transform="translate(0 1)" fill="#0A0E15"/>
<path d="M296 62L536.755 392.75H55.2449L296 62Z" fill="#1ECFF1"/>
<rect x="979" y="-9" width="442" height="291" fill="#FFD510"/>
<ellipse cx="85.6877" cy="24.881" rx="285.98" ry="143" transform="rotate(-40.2325 85.6877 24.881)" fill="#9A44FD"/>
<path d="M759.031 249.118L337.194 -4.91268L1185.85 3.5433L759.031 249.118Z" fill="#F48EEB"/>
<rect x="377.61" y="-8.92773" width="1081.94" height="188" transform="rotate(15.2528 377.61 -8.92773)" fill="#FF9F6B"/>
</g>
<path d="M219 83L221.244 210.835L262.88 89.95L225.511 212.221L302.466 110.12L229.141 214.859L333.88 141.534L231.779 218.489L354.05 181.12L233.165 222.756L361 225L233.165 227.244L354.05 268.88L231.779 231.511L333.88 308.466L229.141 235.141L302.466 339.88L225.511 237.779L262.88 360.05L221.244 239.165L219 367L216.756 239.165L175.12 360.05L212.489 237.779L135.534 339.88L208.859 235.141L104.12 308.466L206.221 231.511L83.95 268.88L204.835 227.244L77 225L204.835 222.756L83.95 181.12L206.221 218.489L104.12 141.534L208.859 214.859L135.534 110.12L212.489 212.221L175.12 89.95L216.756 210.835L219 83Z" fill="#59514A" fill-opacity="0.3"/>
<path d="M1022 -1L1024.24 126.835L1065.88 5.94998L1028.51 128.221L1105.47 26.1196L1032.14 130.859L1136.88 57.5345L1034.78 134.489L1157.05 97.1196L1036.17 138.756L1164 141L1036.17 143.244L1157.05 184.88L1034.78 147.511L1136.88 224.466L1032.14 151.141L1105.47 255.88L1028.51 153.779L1065.88 276.05L1024.24 155.165L1022 283L1019.76 155.165L978.12 276.05L1015.49 153.779L938.534 255.88L1011.86 151.141L907.12 224.466L1009.22 147.511L886.95 184.88L1007.83 143.244L880 141L1007.83 138.756L886.95 97.1196L1009.22 134.489L907.12 57.5345L1011.86 130.859L938.534 26.1196L1015.49 128.221L978.12 5.94998L1019.76 126.835L1022 -1Z" fill="#59514A" fill-opacity="0.3"/>
<path d="M588 -148L590.244 -20.1654L631.88 -141.05L594.511 -18.7788L671.466 -120.88L598.141 -16.1413L702.88 -89.4655L600.779 -12.5111L723.05 -49.8804L602.165 -8.24358L730 -6L602.165 -3.75642L723.05 37.8804L600.779 0.511139L702.88 77.4655L598.141 4.14133L671.466 108.88L594.511 6.77881L631.88 129.05L590.244 8.16542L588 136L585.756 8.16542L544.12 129.05L581.489 6.77881L504.534 108.88L577.859 4.14133L473.12 77.4655L575.221 0.511139L452.95 37.8804L573.835 -3.75642L446 -6L573.835 -8.24358L452.95 -49.8804L575.221 -12.5111L473.12 -89.4655L577.859 -16.1413L504.534 -120.88L581.489 -18.7788L544.12 -141.05L585.756 -20.1654L588 -148Z" fill="#59514A" fill-opacity="0.3"/>
<path d="M187.5 76L190.1 99.2957L209 102.5L190.1 105.704L187.5 129L184.9 105.704L166 102.5L184.9 99.2957L187.5 76Z" fill="#FFF2E5"/>
<path d="M253 127V126.36H253.256C254.792 126.36 256.029 125.891 256.968 124.952C257.907 124.013 258.376 122.776 258.376 121.24V84.76C258.376 83.224 257.907 81.9867 256.968 81.048C256.029 80.1093 254.792 79.64 253.256 79.64H253V79H273.48V79.64H273.352C271.816 79.64 270.579 80.1093 269.64 81.048C268.701 81.9867 268.232 83.224 268.232 84.76V99.608H289.352V84.76C289.352 83.224 288.883 81.9867 287.944 81.048C287.005 80.1093 285.768 79.64 284.232 79.64H284.04V79H304.52V79.64H304.328C302.792 79.64 301.555 80.1093 300.616 81.048C299.677 81.9867 299.208 83.224 299.208 84.76V121.24C299.208 122.776 299.677 124.013 300.616 124.952C301.555 125.891 302.792 126.36 304.328 126.36H304.52V127H284.04V126.36H284.232C285.768 126.36 287.005 125.891 287.944 124.952C288.883 124.013 289.352 122.776 289.352 121.24V100.504H268.232V121.24C268.232 122.776 268.701 124.013 269.64 124.952C270.579 125.891 271.816 126.36 273.352 126.36H273.48V127H253ZM319.404 127.768C316.46 127.768 313.836 127.043 311.532 125.592C309.27 124.141 307.5 122.136 306.22 119.576C304.94 116.973 304.299 114.008 304.299 110.68C304.299 107.267 305.003 104.28 306.411 101.72C307.82 99.16 309.74 97.176 312.172 95.768C314.646 94.3173 317.441 93.592 320.556 93.592C323.158 93.592 325.462 94.104 327.468 95.128C329.516 96.152 331.137 97.6027 332.332 99.48C333.569 101.315 334.273 103.448 334.444 105.88L334.507 106.84H313.004V107.16C313.004 111.683 314.006 115.309 316.012 118.04C318.017 120.728 320.705 122.072 324.076 122.072C326.124 122.072 328.065 121.581 329.9 120.6C331.777 119.576 333.292 118.211 334.444 116.504L335.02 116.696C334.294 118.872 333.164 120.792 331.628 122.456C330.092 124.12 328.278 125.421 326.188 126.36C324.097 127.299 321.836 127.768 319.404 127.768ZM313.068 105.88H326.06C326.06 102.509 325.505 99.7787 324.396 97.688C323.329 95.5973 321.814 94.552 319.852 94.552C317.974 94.552 316.417 95.576 315.18 97.624C313.942 99.672 313.238 102.424 313.068 105.88ZM334.312 127V126.36C335.849 126.36 337.086 125.912 338.025 125.016C339.006 124.077 339.497 122.819 339.497 121.24V84.76C339.497 83.224 339.006 81.9867 338.025 81.048C337.086 80.1093 335.849 79.64 334.312 79.64V79H340.841C343.017 79 344.681 78.7653 345.833 78.296C346.899 77.8267 347.646 77.2507 348.073 76.568H348.713V121.24C348.713 122.819 349.182 124.077 350.121 125.016C351.102 125.912 352.361 126.36 353.897 126.36V127H334.312ZM353.125 127V126.36C354.661 126.36 355.898 125.912 356.837 125.016C357.818 124.077 358.309 122.819 358.309 121.24V84.76C358.309 83.224 357.818 81.9867 356.837 81.048C355.898 80.1093 354.661 79.64 353.125 79.64V79H359.653C361.829 79 363.493 78.7653 364.645 78.296C365.712 77.8267 366.458 77.2507 366.885 76.568H367.525V121.24C367.525 122.819 367.994 124.077 368.933 125.016C369.914 125.912 371.173 126.36 372.709 126.36V127H353.125ZM390.336 127.896C386.837 127.896 383.765 127.192 381.12 125.784C378.517 124.376 376.49 122.392 375.04 119.832C373.589 117.272 372.864 114.243 372.864 110.744C372.864 107.245 373.589 104.216 375.04 101.656C376.49 99.096 378.517 97.112 381.12 95.704C383.765 94.296 386.837 93.592 390.336 93.592C393.834 93.592 396.885 94.296 399.488 95.704C402.09 97.112 404.117 99.096 405.568 101.656C407.018 104.216 407.744 107.245 407.744 110.744C407.744 114.243 407.018 117.272 405.568 119.832C404.117 122.392 402.09 124.376 399.488 125.784C396.885 127.192 393.834 127.896 390.336 127.896ZM390.272 127.064C391.765 127.064 393.045 126.317 394.112 124.824C395.178 123.331 396.01 121.347 396.608 118.872C397.205 116.355 397.504 113.624 397.504 110.68C397.504 107.48 397.184 104.664 396.544 102.232C395.946 99.7573 395.093 97.8373 393.984 96.472C392.917 95.064 391.701 94.36 390.336 94.36C388.885 94.36 387.605 95.1067 386.496 96.6C385.429 98.0933 384.597 100.077 384 102.552C383.402 105.027 383.104 107.736 383.104 110.68C383.104 113.923 383.424 116.781 384.064 119.256C384.704 121.731 385.557 123.651 386.624 125.016C387.733 126.381 388.949 127.064 390.272 127.064ZM416.979 109.656C416.979 105.688 416.702 102.339 416.147 99.608C415.635 96.8773 415.08 94.5307 414.483 92.568C413.886 90.6907 413.31 89.0693 412.755 87.704C412.2 86.296 411.923 84.9093 411.923 83.544C411.923 81.9227 412.414 80.6213 413.395 79.64C414.376 78.616 415.678 78.104 417.299 78.104C418.963 78.104 420.286 78.616 421.267 79.64C422.291 80.6213 422.803 81.9227 422.803 83.544C422.803 84.9093 422.526 86.296 421.971 87.704C421.459 89.0693 420.883 90.6907 420.243 92.568C419.56 94.5307 418.942 96.8773 418.387 99.608C417.875 102.339 417.619 105.688 417.619 109.656H416.979ZM417.235 127.896C415.742 127.896 414.462 127.363 413.395 126.296C412.328 125.229 411.795 123.949 411.795 122.456C411.795 120.877 412.35 119.576 413.459 118.552C414.568 117.528 415.827 117.016 417.235 117.016C418.643 117.016 419.902 117.528 421.011 118.552C422.12 119.576 422.675 120.877 422.675 122.456C422.675 123.949 422.142 125.229 421.075 126.296C420.008 127.363 418.728 127.896 417.235 127.896ZM438.5 127V126.36H438.564C440.1 126.36 441.337 125.891 442.276 124.952C443.215 124.013 443.684 122.776 443.684 121.24V84.76C443.684 83.224 443.215 81.9867 442.276 81.048C441.337 80.1093 440.1 79.64 438.564 79.64H438.5V79H458.788V79.64H458.724C457.188 79.64 455.951 80.1093 455.012 81.048C454.073 81.9867 453.604 83.224 453.604 84.76V121.24C453.604 122.776 454.073 124.013 455.012 124.952C455.951 125.891 457.188 126.36 458.724 126.36H458.788V127H438.5ZM462.275 92.888L461.891 92.184C462.829 91.5867 463.619 91.0533 464.259 90.584C464.899 90.072 465.389 89.6027 465.731 89.176C466.456 88.3653 466.819 87.5547 466.819 86.744C466.819 85.8907 466.499 85.272 465.859 84.888C465.219 84.4613 464.493 84.0987 463.683 83.8C462.829 83.5013 462.083 83.0533 461.443 82.456C460.845 81.816 460.547 80.92 460.547 79.768C460.547 78.3173 460.995 77.144 461.891 76.248C462.829 75.352 464.045 74.904 465.539 74.904C467.16 74.904 468.44 75.4587 469.379 76.568C470.317 77.6773 470.787 79.256 470.787 81.304C470.787 83.4373 470.168 85.3787 468.931 87.128C467.693 88.8347 465.475 90.7547 462.275 92.888ZM468.759 127V126.36H468.823C470.359 126.36 471.596 125.891 472.535 124.952C473.474 124.013 473.943 122.776 473.943 121.24V100.248C473.943 98.6267 473.602 97.368 472.919 96.472C472.279 95.576 470.892 95.128 468.759 95.128V94.488H475.095C476.844 94.488 478.188 94.4027 479.127 94.232C480.108 94.0613 480.834 93.848 481.303 93.592C481.772 93.2933 482.114 92.9947 482.327 92.696H482.967L483.031 101.016C484.14 98.7973 485.826 97.0053 488.087 95.64C490.348 94.2747 492.738 93.592 495.255 93.592C497.687 93.592 499.714 94.2747 501.335 95.64C502.956 97.0053 504.002 98.84 504.471 101.144C505.666 98.84 507.372 97.0053 509.591 95.64C511.852 94.2747 514.284 93.592 516.887 93.592C519.746 93.592 522.028 94.5307 523.735 96.408C525.484 98.2853 526.359 100.76 526.359 103.832V121.24C526.359 122.776 526.828 124.013 527.767 124.952C528.706 125.891 529.943 126.36 531.479 126.36H531.543V127H512.023V126.36H512.087C513.623 126.36 514.86 125.891 515.799 124.952C516.738 124.013 517.207 122.776 517.207 121.24V103.192C517.207 101.059 516.78 99.352 515.927 98.072C515.074 96.792 513.964 96.152 512.599 96.152C511.276 96.152 509.89 96.7493 508.439 97.944C506.988 99.096 505.73 100.611 504.663 102.488C504.706 102.573 504.727 102.68 504.727 102.808C504.727 102.936 504.727 103.043 504.727 103.128V121.24C504.727 122.776 505.196 124.013 506.135 124.952C507.074 125.891 508.311 126.36 509.847 126.36H509.911V127H490.391V126.36H490.455C491.991 126.36 493.228 125.891 494.167 124.952C495.106 124.013 495.575 122.776 495.575 121.24V103.192C495.575 101.059 495.148 99.352 494.295 98.072C493.484 96.792 492.396 96.152 491.031 96.152C489.708 96.152 488.322 96.728 486.871 97.88C485.463 98.9893 484.226 100.504 483.159 102.424V121.24C483.159 122.776 483.628 124.013 484.567 124.952C485.506 125.891 486.743 126.36 488.279 126.36H488.343V127H468.759ZM570.304 127.896L552.384 86.808L549.376 120.472C549.205 122.179 549.696 123.565 550.848 124.632C552 125.699 553.408 126.275 555.072 126.36V127H542.272V126.36C543.893 126.275 545.259 125.677 546.368 124.568C547.477 123.459 548.117 122.072 548.288 120.408L551.488 85.016C550.677 83.352 549.653 82.0507 548.416 81.112C547.221 80.1307 545.664 79.64 543.744 79.64V79H559.104L574.72 115.16L590.336 79H602.304V79.64C600.939 79.64 599.787 80.0453 598.848 80.856C597.909 81.6667 597.483 82.776 597.568 84.184L600.832 122.072C601.045 123.523 601.728 124.611 602.88 125.336C604.075 126.061 605.248 126.424 606.4 126.424V127H586.56V126.424C587.285 126.424 588.032 126.253 588.8 125.912C589.568 125.571 590.187 125.08 590.656 124.44C591.168 123.8 591.36 123.053 591.232 122.2L588.096 86.872L570.304 127.896ZM615.437 127.896C612.834 127.896 610.743 127.192 609.165 125.784C607.586 124.376 606.797 122.52 606.797 120.216C606.797 119.235 606.967 118.317 607.309 117.464C607.65 116.568 608.29 115.693 609.229 114.84C610.21 113.987 611.554 113.112 613.26 112.216C614.967 111.277 617.229 110.296 620.045 109.272L625.997 107.096V102.296C625.997 99.864 625.613 97.944 624.845 96.536C624.077 95.0853 623.01 94.36 621.645 94.36C620.023 94.4027 618.637 95.4693 617.485 97.56C616.375 99.6507 615.629 102.552 615.245 106.264L608.333 102.296C609.058 100.547 610.167 99.0107 611.661 97.688C613.154 96.3653 614.861 95.3413 616.781 94.616C618.743 93.8907 620.791 93.528 622.925 93.528C626.551 93.528 629.495 94.552 631.757 96.6C634.061 98.6053 635.213 101.357 635.213 104.856V120.28C635.213 122.755 636.045 123.992 637.708 123.992C638.69 123.992 639.65 123.459 640.589 122.392L641.101 122.84C639.991 124.333 638.647 125.549 637.069 126.488C635.49 127.427 633.954 127.896 632.461 127.896C630.839 127.896 629.431 127.341 628.237 126.232C627.085 125.123 626.359 123.651 626.061 121.816C623.97 123.949 622.135 125.507 620.557 126.488C619.021 127.427 617.314 127.896 615.437 127.896ZM620.237 123.928C621.175 123.928 622.071 123.693 622.925 123.224C623.821 122.755 624.823 121.987 625.933 120.92L625.997 107.928L623.437 108.888C621.261 109.699 619.597 110.531 618.445 111.384C617.293 112.195 616.482 113.112 616.013 114.136C615.586 115.16 615.373 116.333 615.373 117.656C615.373 119.491 615.821 121.005 616.717 122.2C617.655 123.352 618.829 123.928 620.237 123.928ZM639.822 127V126.36H639.886C641.422 126.36 642.659 125.891 643.598 124.952C644.536 124.013 645.006 122.776 645.006 121.24V100.248C645.006 98.6267 644.664 97.368 643.982 96.472C643.342 95.576 641.955 95.128 639.822 95.128V94.488H646.158C648.419 94.488 650.126 94.2747 651.278 93.848C652.43 93.3787 653.24 92.7813 653.71 92.056H654.03L654.094 102.552C654.648 101.272 655.352 99.928 656.206 98.52C657.102 97.112 658.211 95.9387 659.534 95C660.899 94.0187 662.52 93.528 664.398 93.528C665.038 93.528 665.72 93.592 666.446 93.72C667.171 93.848 667.939 94.0827 668.75 94.424L666.254 101.912C664.718 101.059 663.374 100.461 662.222 100.12C661.112 99.7787 660.131 99.608 659.278 99.608C657.827 99.608 656.739 100.056 656.014 100.952C655.331 101.848 654.734 102.915 654.222 104.152V121.24C654.222 122.776 654.691 124.013 655.63 124.952C656.568 125.891 657.806 126.36 659.342 126.36H659.406V127H639.822ZM668.886 127V126.36H668.95C670.486 126.36 671.723 125.891 672.661 124.952C673.6 124.013 674.07 122.776 674.07 121.24V100.248C674.07 98.6267 673.728 97.368 673.046 96.472C672.406 95.576 671.019 95.128 668.886 95.128V94.488H675.414C677.59 94.488 679.254 94.2533 680.406 93.784C681.472 93.3147 682.219 92.7387 682.646 92.056H683.286V121.24C683.286 122.776 683.755 124.013 684.694 124.952C685.632 125.891 686.87 126.36 688.406 126.36H688.47V127H668.886ZM678.614 88.024C677.078 88.024 675.798 87.5333 674.774 86.552C673.792 85.528 673.302 84.248 673.302 82.712C673.302 81.176 673.792 79.9173 674.774 78.936C675.798 77.912 677.078 77.4 678.614 77.4C680.107 77.4 681.344 77.912 682.326 78.936C683.35 79.96 683.862 81.2187 683.862 82.712C683.862 84.2053 683.35 85.464 682.326 86.488C681.344 87.512 680.107 88.024 678.614 88.024ZM698.062 127.896C695.459 127.896 693.368 127.192 691.79 125.784C690.211 124.376 689.422 122.52 689.422 120.216C689.422 119.235 689.592 118.317 689.934 117.464C690.275 116.568 690.915 115.693 691.854 114.84C692.835 113.987 694.179 113.112 695.885 112.216C697.592 111.277 699.854 110.296 702.67 109.272L708.622 107.096V102.296C708.622 99.864 708.238 97.944 707.47 96.536C706.702 95.0853 705.635 94.36 704.27 94.36C702.648 94.4027 701.262 95.4693 700.11 97.56C699 99.6507 698.254 102.552 697.87 106.264L690.958 102.296C691.683 100.547 692.792 99.0107 694.286 97.688C695.779 96.3653 697.486 95.3413 699.406 94.616C701.368 93.8907 703.416 93.528 705.55 93.528C709.176 93.528 712.12 94.552 714.382 96.6C716.686 98.6053 717.838 101.357 717.838 104.856V120.28C717.838 122.755 718.67 123.992 720.333 123.992C721.315 123.992 722.275 123.459 723.214 122.392L723.726 122.84C722.616 124.333 721.272 125.549 719.694 126.488C718.115 127.427 716.579 127.896 715.086 127.896C713.464 127.896 712.056 127.341 710.862 126.232C709.71 125.123 708.984 123.651 708.686 121.816C706.595 123.949 704.76 125.507 703.182 126.488C701.646 127.427 699.939 127.896 698.062 127.896ZM702.862 123.928C703.8 123.928 704.696 123.693 705.55 123.224C706.446 122.755 707.448 121.987 708.558 120.92L708.622 107.928L706.062 108.888C703.886 109.699 702.222 110.531 701.07 111.384C699.918 112.195 699.107 113.112 698.638 114.136C698.211 115.16 697.998 116.333 697.998 117.656C697.998 119.491 698.446 121.005 699.342 122.2C700.28 123.352 701.454 123.928 702.862 123.928ZM722.447 127V126.36H722.511C724.047 126.36 725.284 125.891 726.223 124.952C727.161 124.013 727.631 122.776 727.631 121.24V100.248C727.631 98.6267 727.289 97.368 726.607 96.472C725.967 95.576 724.58 95.128 722.447 95.128V94.488H728.783C730.959 94.488 732.623 94.2533 733.775 93.784C734.841 93.3147 735.588 92.7387 736.015 92.056H736.655L736.719 101.016C737.828 98.7973 739.513 97.0053 741.775 95.64C744.036 94.2747 746.425 93.592 748.943 93.592C751.801 93.592 754.084 94.5307 755.791 96.408C757.54 98.2853 758.415 100.76 758.415 103.832V121.24C758.415 122.776 758.884 124.013 759.823 124.952C760.761 125.891 761.999 126.36 763.535 126.36H763.599V127H744.079V126.36H744.143C745.679 126.36 746.916 125.891 747.855 124.952C748.793 124.013 749.263 122.776 749.263 121.24V103.192C749.263 101.059 748.836 99.352 747.983 98.072C747.172 96.792 746.084 96.152 744.719 96.152C743.396 96.152 742.009 96.728 740.559 97.88C739.151 98.9893 737.913 100.504 736.847 102.424V121.24C736.847 122.776 737.316 124.013 738.255 124.952C739.193 125.891 740.431 126.36 741.967 126.36H742.031V127H722.447ZM772.437 127.896C769.834 127.896 767.743 127.192 766.165 125.784C764.586 124.376 763.797 122.52 763.797 120.216C763.797 119.235 763.967 118.317 764.309 117.464C764.65 116.568 765.29 115.693 766.229 114.84C767.21 113.987 768.554 113.112 770.26 112.216C771.967 111.277 774.229 110.296 777.045 109.272L782.997 107.096V102.296C782.997 99.864 782.613 97.944 781.845 96.536C781.077 95.0853 780.01 94.36 778.645 94.36C777.023 94.4027 775.637 95.4693 774.485 97.56C773.375 99.6507 772.629 102.552 772.245 106.264L765.333 102.296C766.058 100.547 767.167 99.0107 768.661 97.688C770.154 96.3653 771.861 95.3413 773.781 94.616C775.743 93.8907 777.791 93.528 779.925 93.528C783.551 93.528 786.495 94.552 788.757 96.6C791.061 98.6053 792.213 101.357 792.213 104.856V120.28C792.213 122.755 793.045 123.992 794.708 123.992C795.69 123.992 796.65 123.459 797.589 122.392L798.101 122.84C796.991 124.333 795.647 125.549 794.069 126.488C792.49 127.427 790.954 127.896 789.461 127.896C787.839 127.896 786.431 127.341 785.237 126.232C784.085 125.123 783.359 123.651 783.061 121.816C780.97 123.949 779.135 125.507 777.557 126.488C776.021 127.427 774.314 127.896 772.437 127.896ZM777.237 123.928C778.175 123.928 779.071 123.693 779.925 123.224C780.821 122.755 781.823 121.987 782.933 120.92L782.997 107.928L780.437 108.888C778.261 109.699 776.597 110.531 775.445 111.384C774.293 112.195 773.482 113.112 773.013 114.136C772.586 115.16 772.373 116.333 772.373 117.656C772.373 119.491 772.821 121.005 773.717 122.2C774.655 123.352 775.829 123.928 777.237 123.928ZM821.595 127L821.659 126.36H821.723C823.259 126.36 824.496 125.891 825.435 124.952C826.373 124.013 826.843 122.776 826.843 121.24V79.896H824.987C822.896 79.896 820.848 80.2373 818.843 80.92C816.837 81.56 815.109 82.7547 813.659 84.504C812.208 86.2107 811.227 88.6853 810.715 91.928H810.075L811.867 79H851.739L853.595 91.928H852.955C852.443 88.728 851.44 86.2533 849.947 84.504C848.496 82.7547 846.747 81.56 844.699 80.92C842.693 80.2373 840.603 79.896 838.427 79.896H836.763V121.24C836.763 122.776 837.232 124.013 838.171 124.952C839.109 125.891 840.347 126.36 841.882 126.36L841.947 127H821.595ZM864.624 127.896C862.021 127.896 859.931 127.192 858.352 125.784C856.773 124.376 855.984 122.52 855.984 120.216C855.984 119.235 856.155 118.317 856.496 117.464C856.837 116.568 857.477 115.693 858.416 114.84C859.397 113.987 860.741 113.112 862.448 112.216C864.155 111.277 866.416 110.296 869.232 109.272L875.184 107.096V102.296C875.184 99.864 874.8 97.944 874.032 96.536C873.264 95.0853 872.197 94.36 870.832 94.36C869.211 94.4027 867.824 95.4693 866.672 97.56C865.563 99.6507 864.816 102.552 864.432 106.264L857.52 102.296C858.245 100.547 859.355 99.0107 860.848 97.688C862.341 96.3653 864.048 95.3413 865.968 94.616C867.931 93.8907 869.979 93.528 872.112 93.528C875.739 93.528 878.683 94.552 880.944 96.6C883.248 98.6053 884.4 101.357 884.4 104.856V120.28C884.4 122.755 885.232 123.992 886.896 123.992C887.877 123.992 888.837 123.459 889.776 122.392L890.288 122.84C889.179 124.333 887.835 125.549 886.256 126.488C884.677 127.427 883.141 127.896 881.648 127.896C880.027 127.896 878.619 127.341 877.424 126.232C876.272 125.123 875.547 123.651 875.248 121.816C873.157 123.949 871.323 125.507 869.744 126.488C868.208 127.427 866.501 127.896 864.624 127.896ZM869.424 123.928C870.363 123.928 871.259 123.693 872.112 123.224C873.008 122.755 874.011 121.987 875.12 120.92L875.184 107.928L872.624 108.888C870.448 109.699 868.784 110.531 867.632 111.384C866.48 112.195 865.669 113.112 865.2 114.136C864.773 115.16 864.56 116.333 864.56 117.656C864.56 119.491 865.008 121.005 865.904 122.2C866.843 123.352 868.016 123.928 869.424 123.928ZM889.009 127V126.36H889.073C890.609 126.36 891.846 125.891 892.785 124.952C893.724 124.013 894.193 122.776 894.193 121.24V100.248C894.193 98.6267 893.852 97.368 893.169 96.472C892.529 95.576 891.142 95.128 889.009 95.128V94.488H895.345C897.094 94.488 898.438 94.4027 899.377 94.232C900.358 94.0613 901.084 93.848 901.553 93.592C902.022 93.2933 902.364 92.9947 902.577 92.696H903.217L903.281 101.016C904.39 98.7973 906.076 97.0053 908.337 95.64C910.598 94.2747 912.988 93.592 915.505 93.592C917.937 93.592 919.964 94.2747 921.585 95.64C923.206 97.0053 924.252 98.84 924.721 101.144C925.916 98.84 927.622 97.0053 929.841 95.64C932.102 94.2747 934.534 93.592 937.137 93.592C939.996 93.592 942.278 94.5307 943.985 96.408C945.734 98.2853 946.609 100.76 946.609 103.832V121.24C946.609 122.776 947.078 124.013 948.017 124.952C948.956 125.891 950.193 126.36 951.729 126.36H951.793V127H932.273V126.36H932.337C933.873 126.36 935.11 125.891 936.049 124.952C936.988 124.013 937.457 122.776 937.457 121.24V103.192C937.457 101.059 937.03 99.352 936.177 98.072C935.324 96.792 934.214 96.152 932.849 96.152C931.526 96.152 930.14 96.7493 928.689 97.944C927.238 99.096 925.98 100.611 924.913 102.488C924.956 102.573 924.977 102.68 924.977 102.808C924.977 102.936 924.977 103.043 924.977 103.128V121.24C924.977 122.776 925.446 124.013 926.385 124.952C927.324 125.891 928.561 126.36 930.097 126.36H930.161V127H910.641V126.36H910.705C912.241 126.36 913.478 125.891 914.417 124.952C915.356 124.013 915.825 122.776 915.825 121.24V103.192C915.825 101.059 915.398 99.352 914.545 98.072C913.734 96.792 912.646 96.152 911.281 96.152C909.958 96.152 908.572 96.728 907.121 97.88C905.713 98.9893 904.476 100.504 903.409 102.424V121.24C903.409 122.776 903.878 124.013 904.817 124.952C905.756 125.891 906.993 126.36 908.529 126.36H908.593V127H889.009ZM960.624 127.896C958.021 127.896 955.931 127.192 954.352 125.784C952.773 124.376 951.984 122.52 951.984 120.216C951.984 119.235 952.155 118.317 952.496 117.464C952.837 116.568 953.477 115.693 954.416 114.84C955.397 113.987 956.741 113.112 958.448 112.216C960.155 111.277 962.416 110.296 965.232 109.272L971.184 107.096V102.296C971.184 99.864 970.8 97.944 970.032 96.536C969.264 95.0853 968.197 94.36 966.832 94.36C965.211 94.4027 963.824 95.4693 962.672 97.56C961.563 99.6507 960.816 102.552 960.432 106.264L953.52 102.296C954.245 100.547 955.355 99.0107 956.848 97.688C958.341 96.3653 960.048 95.3413 961.968 94.616C963.931 93.8907 965.979 93.528 968.112 93.528C971.739 93.528 974.683 94.552 976.944 96.6C979.248 98.6053 980.4 101.357 980.4 104.856V120.28C980.4 122.755 981.232 123.992 982.896 123.992C983.877 123.992 984.837 123.459 985.776 122.392L986.288 122.84C985.179 124.333 983.835 125.549 982.256 126.488C980.677 127.427 979.141 127.896 977.648 127.896C976.027 127.896 974.619 127.341 973.424 126.232C972.272 125.123 971.547 123.651 971.248 121.816C969.157 123.949 967.323 125.507 965.744 126.488C964.208 127.427 962.501 127.896 960.624 127.896ZM965.424 123.928C966.363 123.928 967.259 123.693 968.112 123.224C969.008 122.755 970.011 121.987 971.12 120.92L971.184 107.928L968.624 108.888C966.448 109.699 964.784 110.531 963.632 111.384C962.48 112.195 961.669 113.112 961.2 114.136C960.773 115.16 960.56 116.333 960.56 117.656C960.56 119.491 961.008 121.005 961.904 122.2C962.843 123.352 964.016 123.928 965.424 123.928ZM983.768 141.336C982.019 141.336 980.333 140.995 978.712 140.312L981.208 132.824C982.275 133.251 983.427 133.613 984.664 133.912C985.944 134.211 987.224 134.36 988.504 134.36C990.125 134.36 991.64 134.019 993.048 133.336C994.499 132.696 995.587 131.48 996.312 129.688L997.016 127.96L984.344 98.584C983.917 97.56 983.363 96.7493 982.68 96.152C981.955 95.512 980.973 95.1707 979.736 95.128V94.488H998.232V95.128C997.08 95.256 996.184 95.6613 995.544 96.344C994.947 97.0267 994.648 97.9013 994.648 98.968C994.648 99.9067 994.861 100.867 995.288 101.848L1001.75 117.016L1008.22 101.848C1008.64 100.867 1008.86 99.9067 1008.86 98.968C1008.86 97.9013 1008.54 97.0267 1007.9 96.344C1007.3 95.6613 1006.4 95.256 1005.21 95.128V94.488H1014.04V95.128C1013.06 95.3413 1012.23 95.9813 1011.54 97.048C1010.86 98.072 1010.14 99.48 1009.37 101.272L996.312 131.608C994.947 134.765 993.176 137.176 991 138.84C988.824 140.504 986.413 141.336 983.768 141.336ZM1018.67 109.656C1018.67 105.688 1018.39 102.339 1017.83 99.608C1017.32 96.8773 1016.77 94.5307 1016.17 92.568C1015.57 90.6907 1015 89.0693 1014.44 87.704C1013.89 86.296 1013.61 84.9093 1013.61 83.544C1013.61 81.9227 1014.1 80.6213 1015.08 79.64C1016.06 78.616 1017.37 78.104 1018.99 78.104C1020.65 78.104 1021.97 78.616 1022.95 79.64C1023.98 80.6213 1024.49 81.9227 1024.49 83.544C1024.49 84.9093 1024.21 86.296 1023.66 87.704C1023.15 89.0693 1022.57 90.6907 1021.93 92.568C1021.25 94.5307 1020.63 96.8773 1020.07 99.608C1019.56 102.339 1019.31 105.688 1019.31 109.656H1018.67ZM1018.92 127.896C1017.43 127.896 1016.15 127.363 1015.08 126.296C1014.02 125.229 1013.48 123.949 1013.48 122.456C1013.48 120.877 1014.04 119.576 1015.15 118.552C1016.26 117.528 1017.51 117.016 1018.92 117.016C1020.33 117.016 1021.59 117.528 1022.7 118.552C1023.81 119.576 1024.36 120.877 1024.36 122.456C1024.36 123.949 1023.83 125.229 1022.76 126.296C1021.7 127.363 1020.42 127.896 1018.92 127.896Z" fill="#FFF2E5"/>
<path d="M1092.5 76L1095.1 99.2957L1114 102.5L1095.1 105.704L1092.5 129L1089.9 105.704L1071 102.5L1089.9 99.2957L1092.5 76Z" fill="#FFF2E5"/>
<path d="M456.48 175.004H469.8V177.308H456.48V175.004ZM456.768 188H454.104V162.8H471.384V165.104H456.768V188ZM475.994 188V169.1H478.442V174.248L478.19 173.348C478.718 171.908 479.606 170.816 480.854 170.072C482.102 169.304 483.65 168.92 485.498 168.92V171.404C485.402 171.404 485.306 171.404 485.21 171.404C485.114 171.38 485.018 171.368 484.922 171.368C482.93 171.368 481.37 171.98 480.242 173.204C479.114 174.404 478.55 176.12 478.55 178.352V188H475.994ZM497.69 188.18C495.866 188.18 494.222 187.772 492.758 186.956C491.318 186.116 490.178 184.976 489.338 183.536C488.498 182.072 488.078 180.404 488.078 178.532C488.078 176.636 488.498 174.968 489.338 173.528C490.178 172.088 491.318 170.96 492.758 170.144C494.198 169.328 495.842 168.92 497.69 168.92C499.562 168.92 501.218 169.328 502.658 170.144C504.122 170.96 505.262 172.088 506.078 173.528C506.918 174.968 507.338 176.636 507.338 178.532C507.338 180.404 506.918 182.072 506.078 183.536C505.262 184.976 504.122 186.116 502.658 186.956C501.194 187.772 499.538 188.18 497.69 188.18ZM497.69 185.912C499.058 185.912 500.27 185.612 501.326 185.012C502.382 184.388 503.21 183.524 503.81 182.42C504.434 181.292 504.746 179.996 504.746 178.532C504.746 177.044 504.434 175.748 503.81 174.644C503.21 173.54 502.382 172.688 501.326 172.088C500.27 171.464 499.07 171.152 497.726 171.152C496.382 171.152 495.182 171.464 494.126 172.088C493.07 172.688 492.23 173.54 491.606 174.644C490.982 175.748 490.67 177.044 490.67 178.532C490.67 179.996 490.982 181.292 491.606 182.42C492.23 183.524 493.07 184.388 494.126 185.012C495.182 185.612 496.37 185.912 497.69 185.912ZM522.204 168.92C523.74 168.92 525.084 169.22 526.236 169.82C527.412 170.396 528.324 171.284 528.972 172.484C529.644 173.684 529.98 175.196 529.98 177.02V188H527.424V177.272C527.424 175.28 526.92 173.78 525.912 172.772C524.928 171.74 523.536 171.224 521.736 171.224C520.392 171.224 519.216 171.5 518.208 172.052C517.224 172.58 516.456 173.36 515.904 174.392C515.376 175.4 515.112 176.624 515.112 178.064V188H512.556V169.1H515.004V174.284L514.608 173.312C515.208 171.944 516.168 170.876 517.488 170.108C518.808 169.316 520.38 168.92 522.204 168.92ZM542.86 188.18C541.084 188.18 539.716 187.7 538.756 186.74C537.796 185.78 537.316 184.424 537.316 182.672V164.924H539.872V182.528C539.872 183.632 540.148 184.484 540.7 185.084C541.276 185.684 542.092 185.984 543.148 185.984C544.276 185.984 545.212 185.66 545.956 185.012L546.856 186.848C546.352 187.304 545.74 187.64 545.02 187.856C544.324 188.072 543.604 188.18 542.86 188.18ZM533.932 171.224V169.1H545.632V171.224H533.932ZM549.754 179.36V177.128H559.186V179.36H549.754ZM567.82 174.068H581.14V176.336H567.82V174.068ZM568.108 185.696H583.264V188H565.444V162.8H582.724V165.104H568.108V185.696ZM598.634 168.92C600.17 168.92 601.514 169.22 602.666 169.82C603.842 170.396 604.754 171.284 605.402 172.484C606.074 173.684 606.41 175.196 606.41 177.02V188H603.854V177.272C603.854 175.28 603.35 173.78 602.342 172.772C601.358 171.74 599.966 171.224 598.166 171.224C596.822 171.224 595.646 171.5 594.638 172.052C593.654 172.58 592.886 173.36 592.334 174.392C591.806 175.4 591.542 176.624 591.542 178.064V188H588.986V169.1H591.434V174.284L591.038 173.312C591.638 171.944 592.598 170.876 593.918 170.108C595.238 169.316 596.81 168.92 598.634 168.92ZM620.838 188.18C619.038 188.18 617.418 187.772 615.978 186.956C614.562 186.14 613.446 185.012 612.63 183.572C611.814 182.108 611.406 180.428 611.406 178.532C611.406 176.612 611.814 174.932 612.63 173.492C613.446 172.052 614.562 170.936 615.978 170.144C617.418 169.328 619.038 168.92 620.838 168.92C622.494 168.92 623.97 169.292 625.266 170.036C626.586 170.78 627.63 171.872 628.398 173.312C629.19 174.728 629.586 176.468 629.586 178.532C629.586 180.572 629.202 182.312 628.434 183.752C627.666 185.192 626.622 186.296 625.302 187.064C624.006 187.808 622.518 188.18 620.838 188.18ZM621.018 185.912C622.362 185.912 623.562 185.612 624.618 185.012C625.698 184.388 626.538 183.524 627.138 182.42C627.762 181.292 628.074 179.996 628.074 178.532C628.074 177.044 627.762 175.748 627.138 174.644C626.538 173.54 625.698 172.688 624.618 172.088C623.562 171.464 622.362 171.152 621.018 171.152C619.698 171.152 618.51 171.464 617.454 172.088C616.398 172.688 615.558 173.54 614.934 174.644C614.31 175.748 613.998 177.044 613.998 178.532C613.998 179.996 614.31 181.292 614.934 182.42C615.558 183.524 616.398 184.388 617.454 185.012C618.51 185.612 619.698 185.912 621.018 185.912ZM628.146 188V182.312L628.398 178.496L628.038 174.68V161.288H630.594V188H628.146ZM647.674 188V162.8H657.934C660.622 162.8 662.974 163.34 664.99 164.42C667.03 165.476 668.614 166.952 669.742 168.848C670.87 170.744 671.434 172.928 671.434 175.4C671.434 177.872 670.87 180.056 669.742 181.952C668.614 183.848 667.03 185.336 664.99 186.416C662.974 187.472 660.622 188 657.934 188H647.674ZM650.338 185.696H657.79C660.022 185.696 661.954 185.264 663.586 184.4C665.242 183.512 666.526 182.3 667.438 180.764C668.35 179.204 668.806 177.416 668.806 175.4C668.806 173.36 668.35 171.572 667.438 170.036C666.526 168.5 665.242 167.3 663.586 166.436C661.954 165.548 660.022 165.104 657.79 165.104H650.338V185.696ZM684.905 188.18C682.937 188.18 681.209 187.772 679.721 186.956C678.233 186.116 677.069 184.976 676.229 183.536C675.389 182.072 674.969 180.404 674.969 178.532C674.969 176.66 675.365 175.004 676.157 173.564C676.973 172.124 678.077 170.996 679.469 170.18C680.885 169.34 682.469 168.92 684.221 168.92C685.997 168.92 687.569 169.328 688.937 170.144C690.329 170.936 691.421 172.064 692.213 173.528C693.005 174.968 693.401 176.636 693.401 178.532C693.401 178.652 693.389 178.784 693.365 178.928C693.365 179.048 693.365 179.18 693.365 179.324H676.913V177.416H691.997L690.989 178.172C690.989 176.804 690.689 175.592 690.089 174.536C689.513 173.456 688.721 172.616 687.713 172.016C686.705 171.416 685.541 171.116 684.221 171.116C682.925 171.116 681.761 171.416 680.729 172.016C679.697 172.616 678.893 173.456 678.317 174.536C677.741 175.616 677.453 176.852 677.453 178.244V178.64C677.453 180.08 677.765 181.352 678.389 182.456C679.037 183.536 679.925 184.388 681.053 185.012C682.205 185.612 683.513 185.912 684.977 185.912C686.129 185.912 687.197 185.708 688.181 185.3C689.189 184.892 690.053 184.268 690.773 183.428L692.213 185.084C691.373 186.092 690.317 186.86 689.045 187.388C687.797 187.916 686.417 188.18 684.905 188.18ZM703.112 188L694.724 169.1H697.388L705.092 186.632H703.832L711.644 169.1H714.164L705.74 188H703.112ZM725.264 188.18C723.296 188.18 721.568 187.772 720.08 186.956C718.592 186.116 717.428 184.976 716.588 183.536C715.748 182.072 715.328 180.404 715.328 178.532C715.328 176.66 715.724 175.004 716.516 173.564C717.332 172.124 718.436 170.996 719.828 170.18C721.244 169.34 722.828 168.92 724.58 168.92C726.356 168.92 727.928 169.328 729.296 170.144C730.688 170.936 731.78 172.064 732.572 173.528C733.364 174.968 733.76 176.636 733.76 178.532C733.76 178.652 733.748 178.784 733.724 178.928C733.724 179.048 733.724 179.18 733.724 179.324H717.272V177.416H732.356L731.348 178.172C731.348 176.804 731.048 175.592 730.448 174.536C729.872 173.456 729.08 172.616 728.072 172.016C727.064 171.416 725.9 171.116 724.58 171.116C723.284 171.116 722.12 171.416 721.088 172.016C720.056 172.616 719.252 173.456 718.676 174.536C718.1 175.616 717.812 176.852 717.812 178.244V178.64C717.812 180.08 718.124 181.352 718.748 182.456C719.396 183.536 720.284 184.388 721.412 185.012C722.564 185.612 723.872 185.912 725.336 185.912C726.488 185.912 727.556 185.708 728.54 185.3C729.548 184.892 730.412 184.268 731.132 183.428L732.572 185.084C731.732 186.092 730.676 186.86 729.404 187.388C728.156 187.916 726.776 188.18 725.264 188.18ZM738.962 188V161.288H741.518V188H738.962ZM756.334 188.18C754.51 188.18 752.866 187.772 751.402 186.956C749.962 186.116 748.822 184.976 747.982 183.536C747.142 182.072 746.722 180.404 746.722 178.532C746.722 176.636 747.142 174.968 747.982 173.528C748.822 172.088 749.962 170.96 751.402 170.144C752.842 169.328 754.486 168.92 756.334 168.92C758.206 168.92 759.862 169.328 761.302 170.144C762.766 170.96 763.906 172.088 764.722 173.528C765.562 174.968 765.982 176.636 765.982 178.532C765.982 180.404 765.562 182.072 764.722 183.536C763.906 184.976 762.766 186.116 761.302 186.956C759.838 187.772 758.182 188.18 756.334 188.18ZM756.334 185.912C757.702 185.912 758.914 185.612 759.97 185.012C761.026 184.388 761.854 183.524 762.454 182.42C763.078 181.292 763.39 179.996 763.39 178.532C763.39 177.044 763.078 175.748 762.454 174.644C761.854 173.54 761.026 172.688 759.97 172.088C758.914 171.464 757.714 171.152 756.37 171.152C755.026 171.152 753.826 171.464 752.77 172.088C751.714 172.688 750.874 173.54 750.25 174.644C749.626 175.748 749.314 177.044 749.314 178.532C749.314 179.996 749.626 181.292 750.25 182.42C750.874 183.524 751.714 184.388 752.77 185.012C753.826 185.612 755.014 185.912 756.334 185.912ZM780.957 188.18C779.325 188.18 777.849 187.808 776.529 187.064C775.209 186.296 774.153 185.204 773.361 183.788C772.593 182.348 772.209 180.596 772.209 178.532C772.209 176.468 772.593 174.728 773.361 173.312C774.129 171.872 775.173 170.78 776.493 170.036C777.813 169.292 779.301 168.92 780.957 168.92C782.757 168.92 784.365 169.328 785.781 170.144C787.221 170.936 788.349 172.064 789.165 173.528C789.981 174.968 790.389 176.636 790.389 178.532C790.389 180.452 789.981 182.132 789.165 183.572C788.349 185.012 787.221 186.14 785.781 186.956C784.365 187.772 782.757 188.18 780.957 188.18ZM771.201 194.984V169.1H773.649V174.788L773.397 178.568L773.757 182.384V194.984H771.201ZM780.777 185.912C782.121 185.912 783.321 185.612 784.377 185.012C785.433 184.388 786.273 183.524 786.897 182.42C787.521 181.292 787.833 179.996 787.833 178.532C787.833 177.068 787.521 175.784 786.897 174.68C786.273 173.576 785.433 172.712 784.377 172.088C783.321 171.464 782.121 171.152 780.777 171.152C779.433 171.152 778.221 171.464 777.141 172.088C776.085 172.712 775.245 173.576 774.621 174.68C774.021 175.784 773.721 177.068 773.721 178.532C773.721 179.996 774.021 181.292 774.621 182.42C775.245 183.524 776.085 184.388 777.141 185.012C778.221 185.612 779.433 185.912 780.777 185.912ZM803.627 188.18C801.659 188.18 799.931 187.772 798.443 186.956C796.955 186.116 795.791 184.976 794.951 183.536C794.111 182.072 793.691 180.404 793.691 178.532C793.691 176.66 794.087 175.004 794.879 173.564C795.695 172.124 796.799 170.996 798.191 170.18C799.607 169.34 801.191 168.92 802.943 168.92C804.719 168.92 806.291 169.328 807.659 170.144C809.051 170.936 810.143 172.064 810.935 173.528C811.727 174.968 812.123 176.636 812.123 178.532C812.123 178.652 812.111 178.784 812.087 178.928C812.087 179.048 812.087 179.18 812.087 179.324H795.635V177.416H810.719L809.711 178.172C809.711 176.804 809.411 175.592 808.811 174.536C808.235 173.456 807.443 172.616 806.435 172.016C805.427 171.416 804.263 171.116 802.943 171.116C801.647 171.116 800.483 171.416 799.451 172.016C798.419 172.616 797.615 173.456 797.039 174.536C796.463 175.616 796.175 176.852 796.175 178.244V178.64C796.175 180.08 796.487 181.352 797.111 182.456C797.759 183.536 798.647 184.388 799.775 185.012C800.927 185.612 802.235 185.912 803.699 185.912C804.851 185.912 805.919 185.708 806.903 185.3C807.911 184.892 808.775 184.268 809.495 183.428L810.935 185.084C810.095 186.092 809.039 186.86 807.767 187.388C806.519 187.916 805.139 188.18 803.627 188.18ZM817.326 188V169.1H819.774V174.248L819.522 173.348C820.05 171.908 820.938 170.816 822.186 170.072C823.434 169.304 824.982 168.92 826.83 168.92V171.404C826.734 171.404 826.638 171.404 826.542 171.404C826.446 171.38 826.35 171.368 826.254 171.368C824.262 171.368 822.702 171.98 821.574 173.204C820.446 174.404 819.882 176.12 819.882 178.352V188H817.326Z" fill="#FFF2E5"/>
</g>
<defs>
<filter id="filter0_f_438_23" x="-250" y="-249" width="1780" height="770" filterUnits="userSpaceOnUse" color-interpolation-filters="sRGB">
<feFlood flood-opacity="0" result="BackgroundImageFix"/>
<feBlend mode="normal" in="SourceGraphic" in2="BackgroundImageFix" result="shape"/>
<feGaussianBlur stdDeviation="125" result="effect1_foregroundBlur_438_23"/>
</filter>
<clipPath id="clip0_438_23">
<rect width="1280" height="263" fill="white"/>
</clipPath>
<clipPath id="clip1_438_23">
<rect width="1280" height="270" fill="white" transform="translate(0 1)"/>
</clipPath>
</defs>
</svg>
